<?xml version="1.0" encoding="UTF-8"?> <svg xmlns="http://www.w3.org/2000/svg" xmlns:xlink="http://www.w3.org/1999/xlink" id="Layer_2" data-name="Layer 2" viewBox="0 0 164.9 35.08"><defs><style> .cls-1 { fill: #9bc4a7; } .cls-2 { fill: url(#radial-gradient-5); } .cls-3 { clip-path: url(#clippath-2); } .cls-4 { fill: url(#radial-gradient-4); } .cls-5 { fill: #00874b; } .cls-6 { clip-path: url(#clippath-1); } .cls-7 { clip-path: url(#clippath-4); } .cls-8 { fill: #5da97b; } .cls-9 { fill: url(#radial-gradient); } .cls-10 { fill: #c9ddce; } .cls-11 { clip-path: url(#clippath); } .cls-12 { fill: url(#radial-gradient-2); } .cls-13 { fill: none; } .cls-14 { fill: url(#radial-gradient-3); } .cls-15 { clip-path: url(#clippath-3); } .cls-16 { fill: #009251; } .cls-17 { fill: #3a352f; } </style><clipPath id="clippath"><path class="cls-13" d="m150.99,16.19h0s0,0,0,0h-.01s-.11.01-.19.03c-.13,1.14-.16,2.41-.03,3.83.48,5.16-1.66,7.03-3.65,7.04h-.03c-.5,0-.98-.12-1.42-.33,0,.51.03,1.05.07,1.6,0,.08.01.16.02.24.1,1.16.51,2.12.99,2.91,1.16,1,2.57,1.79,4.1,2.28,0,0,0,0,0,0,.04,0,.07.02.11.03,0,0,.01,0,.02,0,0,0,.02,0,.03,0,.01,0,.03,0,.04.01,0,0,0,0,.01,0,.02,0,.04.01.05.02,0,0,0,0,.02,0,.31.09.62.17.94.23,0,0,.02,0,.03,0,.01,0,.03,0,.04,0,.01,0,.02,0,.03,0,.01,0,.02,0,.03,0,.01,0,.03,0,.04,0,0,0,.02,0,.02,0,.02,0,.04,0,.05,0,0,0,0,0,.01,0,.62.11,1.26.18,1.91.18h.28c1.08-.01,2.18-.18,3.27-.54,0,0,0,0,0,0,.02,0,.03-.01.05-.02.01,0,.03,0,.04-.01,0,0,.01,0,.02,0,.12-.04.25-.09.37-.13.02,0,.04-.01.06-.02.05-.02.1-.04.16-.06.05-.04.1-.1.13-.16,0,0,.01-.02.02-.03.3-.45.57-.94.79-1.45-.8.63-1.52,1.04-1.97,1.22-.38.15-.66.22-.84.22-.83,0,.46-1.64,3.25-5.21-.02-.08-.04-.15-.07-.23,0,0,0-.01,0-.02,0,0,0,0,0,0,0,0,0-.01,0-.02,0,0,0,0,0,0,0,0,0-.02,0-.02,0,0,0,0,0,0,0,0,0-.01,0-.02,0,0,0,0,0,0,0,0,0-.02,0-.03,0,0,0-.02,0-.02,0,0,0,0,0,0,0,0,0-.02,0-.03,0,0,0-.02-.01-.03h0c-.03-.09-.07-.18-.11-.26,0,0,0-.02-.01-.03,0,0,0,0,0,0,0,0,0-.01,0-.02,0,0,0,0,0,0,0,0,0-.01,0-.02,0,0,0,0,0,0,0,0,0-.01,0-.02,0,0,0,0,0,0,0,0,0-.01,0-.02,0,0,0,0,0,0,0,0,0-.01,0-.02,0,0,0,0,0-.01,0,0,0,0,0-.01,0,0,0,0,0-.01,0,0,0-.01,0-.02,0,0,0,0,0-.01,0,0,0,0,0,0-.02-.04-.04-.07-.06-.11,0,0,0-.02-.02-.03h0s-.01-.02-.02-.03t0,0s0-.02-.01-.03c0,0,0,0,0,0,0,0-.01-.02-.01-.02h0s-.01-.02-.02-.03h0s-.01-.02-.02-.03c0,0,0,0,0,0,0,0,0-.02-.01-.02,0,0,0,0,0,0-.06-.1-.13-.19-.21-.28,0,0-.01-.02-.02-.02,0,0,0,0,0,0,0,0-.01-.02-.02-.02,0,0,0,0,0,0,0,0-.01-.01-.02-.02,0,0,0,0,0,0,0,0-.01-.01-.02-.02,0,0,0,0,0,0,0,0-.01-.01-.02-.02,0,0,0,0,0,0,0,0-.01-.02-.02-.02,0,0,0,0,0,0,0,0-.01-.01-.02-.02,0,0,0,0,0,0,0,0-.01-.01-.02-.02,0,0,0,0,0,0,0,0-.01-.01-.02-.02-2.79-3.06-6.29-1.67-6.5-5.67-.05-1.07-.12-4.32-1.38-4.53h-.04s0,0,0,0Z"></path></clipPath><radialGradient id="radial-gradient" cx="-290.33" cy="557.63" fx="-290.33" fy="557.63" r="1" gradientTransform="translate(9695.67 -5484.41) rotate(-92.53) scale(17.53 -17.53)" gradientUnits="userSpaceOnUse"><stop offset="0" stop-color="#79c7a7"></stop><stop offset="1" stop-color="#009263"></stop></radialGradient><clipPath id="clippath-1"><path class="cls-13" d="m156.59,33.35c.18,0,.46-.07.84-.22.45-.18,1.18-.59,1.97-1.22.34-.79.55-1.64.57-2.47v-.32c-.01-.33-.05-.66-.13-.98-2.79,3.57-4.09,5.21-3.25,5.21"></path></clipPath><radialGradient id="radial-gradient-2" cx="-290.33" cy="557.63" fx="-290.33" fy="557.63" r="1" gradientTransform="translate(9695.67 -5484.41) rotate(-92.53) scale(17.53 -17.53)" gradientUnits="userSpaceOnUse"><stop offset="0" stop-color="#5ca680"></stop><stop offset="1" stop-color="#058757"></stop></radialGradient><clipPath id="clippath-2"><path class="cls-13" d="m148.56,17.66c-.25,2.23-.97,3.06-1.63,3.07h-.03c-.09,0-.18-.02-.27-.05-.16.41-.31.85-.44,1.32.08-.02.16-.03.24-.03,1.26,0,2.02,1.41,2.02,2.27,0,.77-.66,1.58-1.65,1.59h-.05c-.11,0-.22-.01-.33-.03-.27-.05-.53-.14-.76-.27-.02.39-.03.8-.02,1.23.44.21.92.33,1.42.33h.03c1.99,0,4.13-1.87,3.65-7.04-.13-1.41-.1-2.69.03-3.83-.44.11-1.32.52-2.22,1.43"></path></clipPath><radialGradient id="radial-gradient-3" cx="-290.33" cy="557.63" fx="-290.33" fy="557.63" r="1" gradientTransform="translate(9695.67 -5484.41) rotate(-92.53) scale(17.53 -17.53)" gradientUnits="userSpaceOnUse"><stop offset="0" stop-color="#a2d5be"></stop><stop offset="1" stop-color="#6ca988"></stop></radialGradient><clipPath id="clippath-3"><path class="cls-13" d="m146.19,22c-.27,1.01-.46,2.18-.52,3.53.23.13.49.22.76.27.11.02.22.03.33.03h.05c.98-.01,1.65-.83,1.65-1.59,0-.86-.76-2.27-2.02-2.27-.08,0-.16.01-.24.03"></path></clipPath><radialGradient id="radial-gradient-4" cx="-290.33" cy="557.63" fx="-290.33" fy="557.63" r="1" gradientTransform="translate(9695.67 -5484.41) rotate(-92.53) scale(17.53 -17.53)" gradientUnits="userSpaceOnUse"><stop offset="0" stop-color="#e1f1e8"></stop><stop offset="1" stop-color="#ceded3"></stop></radialGradient><clipPath id="clippath-4"><path class="cls-13" d="m146.63,20.68c.09.03.18.05.27.05h.03c.66-.01,1.38-.84,1.63-3.07-.68.69-1.38,1.66-1.93,3.02"></path></clipPath><radialGradient id="radial-gradient-5" cx="-290.33" cy="557.63" fx="-290.33" fy="557.63" r="1" gradientTransform="translate(9695.67 -5484.41) rotate(-92.53) scale(17.53 -17.53)" gradientUnits="userSpaceOnUse"><stop offset="0" stop-color="#c6e4d5"></stop><stop offset="1" stop-color="#a3c4b0"></stop></radialGradient></defs><g id="Layer_1-2" data-name="Layer 1"><g><path class="cls-17" d="m135.13,14.37l9.76-10.33,9.87,10.4v11.75h-19.64v-11.82Zm-6.69,2.64h4.04s0,11.63,0,11.63h24.78s0-11.63,0-11.63h4.72S144.89.01,144.89.01l-16.46,17Z"></path><path class="cls-16" d="m9.19,10.81l1.92,8.62h-3.85l1.92-8.62Zm-3.33-5.62L0,28.68h5.23l1.11-5.05h5.74l1.14,5.05h5.2L12.56,5.19h-6.7Z"></path><rect class="cls-16" x="20.46" y="4.65" width="4.75" height="24.03"></rect><path class="cls-16" d="m37.73,26.49c-.9.99-2.22,1.62-4.08,1.62-4.24,0-5.92-2.91-5.92-7.45v-.84c0-4.27,1.68-7.45,5.92-7.45,2.22,0,3.63.93,4.54,2.22l.33-1.83h4.24l-.27,4.51v11.12c0,4.38-2.34,6.7-7.36,6.7-5.32,0-7.09-2.55-7.09-5.77v-.63h4.48c0,1.5.54,2.55,2.52,2.55,1.83,0,2.7-.72,2.7-2.88v-1.86Zm0-3.96v-4.57c-.36-.57-1.26-1.5-2.7-1.5-1.71,0-2.55,1.35-2.55,3.36v.84c0,2.28.84,3.36,2.55,3.36,1.44,0,2.34-.93,2.7-1.5"></path><path class="cls-16" d="m49.71,22.43c.18,2.22,1.23,3.03,3,3.03,1.65,0,2.67-.93,2.67-1.89h4.47v.12c0,3.03-2.58,5.38-7.18,5.38-5.29,0-7.72-3.34-7.72-7.93v-.84c0-4.6,2.52-7.93,7.54-7.93s7.36,3.33,7.36,7.93v2.13h-10.15Zm.03-3.42h5.35c-.15-2.07-.99-3.03-2.67-3.03s-2.52.96-2.67,3.03"></path><polygon class="cls-17" points="79.6 28.68 74.47 28.68 66.9 14.14 67.05 18.86 67.05 28.68 62.45 28.68 62.45 5.25 67.59 5.25 75.13 19.79 74.98 15.07 74.98 5.25 79.6 5.25 79.6 28.68"></polygon><path class="cls-17" d="m82.19,21.26v-1.08c0-4.6,2.34-7.81,7.45-7.81s7.45,3.21,7.45,7.81v1.08c0,4.6-2.31,7.81-7.45,7.81s-7.45-3.21-7.45-7.81m10.15,0v-1.08c0-2.34-.81-3.73-2.7-3.73s-2.7,1.38-2.7,3.73v1.08c0,2.34.84,3.73,2.7,3.73s2.7-1.38,2.7-3.73"></path><path class="cls-17" d="m108.59,12.4v4.57h-.81c-1.92,0-3,.78-3.42,1.38v10.33h-4.75v-11.42l-.27-4.51h4.23l.33,1.86c.93-1.32,2.37-2.25,4.24-2.25.15,0,.33,0,.45.03"></path><path class="cls-17" d="m120.7,14.11V0s4.74,4.65,4.74,4.65v19.52l.27,4.51h-4.27l-.33-1.89c-.9,1.32-2.31,2.28-4.51,2.28-4.35,0-5.92-3.21-5.92-7.81v-1.08c0-4.59,1.56-7.81,5.92-7.81,1.86,0,3.18.69,4.09,1.74m-2.7,2.34c-1.86,0-2.58,1.38-2.58,3.72v1.08c0,2.34.72,3.73,2.58,3.73,1.41,0,2.31-.93,2.7-1.5v-5.53c-.39-.57-1.29-1.5-2.7-1.5"></path><path class="cls-16" d="m144.47,28.8c.24.39.5.77.79,1.14.43.56.92,1.09,1.47,1.56,2.93,2.54,7.41,3.7,11.58,2.11.05-.02.1-.04.16-.06.27-.1.53-.23.8-.36,3.95-1.96,8.64-7.39,3.13-16.66-3.36-5.65-2.8-10.48-2.71-10.95l.02-.07c.43-1.47-.08-1.75-.42-1.78-.11-.01-.22,0-.33.03-7.73,2.39-11.45,6.41-13.55,10.22-3.53,6.43-3.16,11.17-.93,14.82"></path><g class="cls-11"><path class="cls-9" d="m150.99,16.19h0s0,0,0,0h-.01s-.11.01-.19.03c-.13,1.14-.16,2.41-.03,3.83.47,5.16-1.66,7.03-3.65,7.03h-.03c-.5,0-.98-.12-1.42-.33,0,.51.03,1.05.07,1.6,0,.08.01.16.02.24.1,1.16.51,2.12.99,2.91,1.16,1,2.57,1.79,4.1,2.28,0,0,0,0,0,0,.04,0,.07.02.11.03,0,0,.01,0,.02,0,0,0,.02,0,.03,0,.01,0,.02,0,.04.01,0,0,0,0,.01,0,.02,0,.04,0,.05.01,0,0,0,0,.02,0,.31.09.62.17.94.23,0,0,.02,0,.03,0,.01,0,.03,0,.04,0,.01,0,.02,0,.03,0,.01,0,.02,0,.03,0,.02,0,.03,0,.04,0,0,0,.02,0,.02,0,.02,0,.04,0,.05,0,0,0,0,0,.01,0,.62.11,1.26.18,1.91.18h.29c1.08-.01,2.18-.18,3.27-.54,0,0,0,0,0,0,.02,0,.03-.01.05-.02.01,0,.03,0,.04-.01,0,0,.01,0,.02,0,.12-.04.25-.09.37-.13.02,0,.04-.01.06-.02.05-.02.1-.04.16-.06.05-.04.1-.1.13-.15,0,0,.01-.02.02-.03.3-.45.57-.94.79-1.45-.79.63-1.52,1.04-1.97,1.22-.38.15-.66.22-.84.22-.83,0,.46-1.64,3.25-5.21-.02-.08-.04-.15-.07-.23,0,0,0-.01,0-.02,0,0,0,0,0,0,0,0,0-.01,0-.02,0,0,0,0,0,0,0,0,0-.01,0-.02,0,0,0,0,0,0,0,0,0-.01,0-.02,0,0,0,0,0,0,0,0,0-.02,0-.02,0,0,0-.02,0-.03,0,0,0,0,0,0,0,0,0-.02,0-.03,0,0,0-.02,0-.03h0c-.03-.09-.07-.18-.11-.26,0,0,0-.02-.01-.02,0,0,0,0,0,0,0,0,0-.01,0-.02,0,0,0,0,0,0,0,0,0-.01,0-.02,0,0,0,0,0,0,0,0,0-.01,0-.02,0,0,0,0,0,0,0,0,0-.01,0-.02,0,0,0,0,0-.01,0,0,0-.01,0-.02h0s0-.02,0-.03c0,0,0,0,0-.01,0,0,0-.01,0-.02,0,0,0,0,0-.01,0,0,0,0,0,0-.02-.04-.04-.07-.06-.11,0,0,0-.02-.02-.03h0s-.01-.02-.02-.03t0,0s0-.02-.01-.02c0,0,0,0,0,0,0,0-.01-.02-.02-.02h0s-.01-.02-.02-.03h0s-.01-.02-.02-.03c0,0,0,0,0,0,0,0,0-.02-.02-.02,0,0,0,0,0,0-.06-.1-.13-.19-.21-.28,0,0-.01-.02-.02-.02,0,0,0,0,0,0,0,0-.01-.02-.02-.02,0,0,0,0,0,0,0,0-.01-.01-.02-.02,0,0,0,0,0,0,0,0-.01-.01-.02-.02,0,0,0,0,0,0,0,0-.01-.01-.02-.02,0,0,0,0,0,0,0,0-.01-.02-.02-.02,0,0,0,0,0,0,0,0-.01-.01-.02-.02,0,0,0,0,0,0,0,0-.01-.01-.02-.02,0,0,0,0,0,0,0,0-.01-.01-.02-.02-2.79-3.06-6.29-1.67-6.5-5.67-.06-1.07-.12-4.32-1.38-4.53h-.04"></path></g><path class="cls-5" d="m159.4,31.91c.52-1.22.74-2.56.44-3.77.07-.09.15-.19.22-.28,3.56-4.56,0-11.46,0-11.46,6.5,7.46,2.4,13.08-.66,15.51"></path><g class="cls-6"><path class="cls-12" d="m156.59,33.35c.18,0,.46-.07.84-.22.45-.17,1.18-.59,1.97-1.22.34-.79.55-1.64.58-2.47v-.32c-.01-.33-.05-.66-.13-.98-2.79,3.57-4.09,5.21-3.25,5.21"></path></g><path class="cls-8" d="m145.65,26.76c-.77-.38-1.38-1.04-1.57-1.88-.39-1.67-1.33-10.48,8.54-17.64,2.17-1.57,3.23-2.13,3.65-2.13.15,0,.22.07.22.2h0c-.01.75-2.04,3.12-2.04,3.12,0,0-3.04,2.38-3.67,7.8-.44.11-1.32.52-2.22,1.43.04-.32.06-.68.08-1.07.14-3.77,3.23-7.22,5.66-9.36.41-.36.81-.8.81-.93h0s-.02-.04-.05-.04c-.17,0-.78.34-2.15,1.33-5.66,4.1-7.15,9.63-7.16,11.57v.04c0,.23.03.4.06.52.17.48.47.83.82.96-.16.41-.31.85-.44,1.32-.75.22-1.33,1.46-1.33,2.24,0,.58.33,1.02.8,1.29-.02.39-.03.8-.02,1.23"></path><g class="cls-3"><path class="cls-14" d="m148.56,17.66c-.25,2.23-.97,3.06-1.63,3.07h-.03c-.09,0-.18-.02-.27-.05-.16.41-.31.85-.44,1.32.08-.02.16-.03.24-.03,1.26,0,2.02,1.41,2.02,2.27,0,.77-.66,1.58-1.65,1.59h-.05c-.11,0-.22-.01-.33-.03-.27-.05-.53-.14-.76-.27-.02.39-.03.8-.02,1.23.44.21.92.33,1.42.33h.03c1.99,0,4.13-1.87,3.65-7.03-.13-1.42-.1-2.69.03-3.83-.44.11-1.32.52-2.22,1.43"></path></g><path class="cls-10" d="m145.67,25.53c-.48-.27-.8-.71-.8-1.29,0-.78.58-2.02,1.33-2.24-.27,1.01-.46,2.18-.52,3.53"></path><g class="cls-15"><path class="cls-4" d="m146.19,22c-.27,1.01-.46,2.18-.52,3.53.23.13.49.22.76.27.11.02.22.03.33.03h.05c.98-.01,1.65-.83,1.65-1.59,0-.86-.76-2.27-2.02-2.27-.08,0-.16.01-.24.03"></path></g><path class="cls-1" d="m146.64,20.68c-.35-.13-.65-.48-.82-.96-.04-.11-.06-.29-.06-.52v-.04c.01-1.94,1.5-7.47,7.16-11.57,1.37-.99,1.97-1.33,2.14-1.33.04,0,.05.01.05.04,0,.14-.4.57-.81.93-2.43,2.14-5.52,5.59-5.66,9.36-.01.39-.04.74-.08,1.07-.68.69-1.38,1.66-1.93,3.02"></path><g class="cls-7"><path class="cls-2" d="m146.64,20.68c.09.03.18.05.27.05h.03c.66-.01,1.38-.84,1.63-3.07-.68.69-1.38,1.66-1.93,3.02"></path></g></g></g></svg> 